# xmcd CD database file
#
# Track frame offsets:
#	151
#	9538
#	28363
#	39244
#	49072
#	68051
#	94509
#	157868
#	181509
#	194106
#	202728
#	223193
#
# Disc length: 3459 seconds
#
# Revision: 0
# Processed by: cddbd v1.5.2PL0 Copyright (c) Steve Scherf et al.
# Submitted via: CDex 1.51
#
DISCID=990d810c
DTITLE=Philharmonia a Vent - Laude - Music of Howard Hanson
DYEAR=2006
DGENRE=Wind Band
TTITLE0=Howard Hanson - Laude I. Chorale
TTITLE1=Howard Hanson - Laude II. Variations 1-3
TTITLE2=Howard Hanson - Laude III. Variations 4-5
TTITLE3=Howard Hanson - Laude IV. Variation 6
TTITLE4=Howard Hanson - Laude V. Variation 7
TTITLE5=Howard Hanson - Chorale and Alleluja
TTITLE6=Howard Hanson - Dies Ntalis
TTITLE7=Howard Hanson - Centennial March
TTITLE8=Howard Hanson - Merry Mount I. Overture
TTITLE9=Howard Hanson - Merry Mount II. Children's Dance
TTITLE10=Howard Hanson - Merry Mount III. Love Duet
TTITLE11=Howard Hanson - Merry Mount IV. Prelude to Act II and Maypole Dances
EXTD=YEAR: 2006
EXTT0=
EXTT1=
EXTT2=
EXTT3=
EXTT4=
EXTT5=
EXTT6=
EXTT7=
EXTT8=
EXTT9=
EXTT10=
EXTT11=
PLAYORDER=
